<svg xmlns="http://www.w3.org/2000/svg" viewBox="0 0 801.03 219.51"><defs><style>.cls-1{fill:#f79520;}.cls-2{fill:#fff;}</style></defs><title>Asset 6</title><g id="Layer_2" data-name="Layer 2"><g id="Layer_1-2" data-name="Layer 1"><path class="cls-1" d="M70.16,140.81a38.56,38.56,0,0,1-8.11-1l-.33-.07-.14-.31c0-.06-2.14-5.9-3.29-8.4a40.79,40.79,0,0,0-3.52-6.22c-.43,0-.86,0-1.28,0-8.24,0-16.11-4.14-19.13-10.06-2.8-5.48-3-10.75-.46-14.83C36.18,96.22,41,93.62,45,93.82a12.63,12.63,0,0,1,3.1.72h0a13.8,13.8,0,0,0-9.59,4.78,9.18,9.18,0,0,0-1.9,7.3,14,14,0,0,0,2.06,5.62c1.82,3,5.94,8.05,13.06,8.05A16.11,16.11,0,0,0,54.5,120l1.48-.18.85,1.18a51.53,51.53,0,0,1,5,8.49,46.4,46.4,0,0,1,2.29,6.06,49.4,49.4,0,0,0,6.76.52c3.47,0,6-.51,7.21-1.48.19-3.21.54-5.64,2.81-8.89a137.58,137.58,0,0,0-6.31-19h-.43a6.34,6.34,0,0,1-1.19-.11c-.46,1.79-1.56,3-2.81,3-1.73-.07-2.92-2.14-2.81-4.72a5.06,5.06,0,0,1,1.92-4.15c0-.53,0-1.05,0-1.56.1-2,.17-3.67-1.85-4.87L66,93.46l1.66-.29a5.26,5.26,0,0,1,1-.1c3.12,0,4.33,2.67,5,5.26C73,90.68,71.05,84,63.58,79.12a15.16,15.16,0,0,1-1.69,6.46l-.81,1.53-.36-1.7c-2.43-11.57-5.39-18.17-15.34-23.72a25.09,25.09,0,0,0-.49,3.17c6.81,3.82,10.48,10,12.23,17.94h0c-4.81-5.72-8.28-7.5-9.53-7.5-.27,0-.35.09-.41.27-.4,1.2.44,6.06,5,9.52h0c-8.1-3-12.06-8.48-12.36-17.25L40,64a41.08,41.08,0,0,1,2.06-8.62l.21-.67.65.29A39.82,39.82,0,0,1,57.05,65.21L57,65.07a77.62,77.62,0,0,0-7.31-9.86c-5.57-6-7.88-12.24-10.12-18.29a81.86,81.86,0,0,0-3.6-8.67c-6.26-12.34-1.23-18.82,2.81-24,.85-1.1,1.65-2.13,2.34-3.18a2.34,2.34,0,0,1,2-1,3.23,3.23,0,0,1,2.21.9A3,3,0,0,1,45.39,5c-8.22,10.27-8,13.61-7.58,14.56a1.7,1.7,0,0,0,1.71.82,6,6,0,0,0,3.59-1.3A44.14,44.14,0,0,1,69,7h.32a2.94,2.94,0,0,1,2.28,4.79,2.89,2.89,0,0,1-2,1.07c-9.21,1-17.14,4.68-22.33,10.31-3,3.2-2.46,11-.16,16.22C48.76,43,51,45.05,53.25,45.05c1.86,0,3.81-1.3,5.8-3.85,3.82-4.93,13-9.59,18.83-9.59h.45a19.5,19.5,0,0,1,3.16.4,2.95,2.95,0,0,1-.62,5.83,3.38,3.38,0,0,1-.63-.07,12.31,12.31,0,0,0-2.14-.28h-.48c-3.66,0-7.53,1.74-11.51,5.16-7.53,6.47-5.75,15.27-4,19.94C66,73,76,81.44,84.5,81.44a12.25,12.25,0,0,0,9.76-4.85,6.68,6.68,0,0,0,.9-1.68l.07-.17a2.93,2.93,0,0,1,3.86-1.55,2.87,2.87,0,0,1,1.57,1.6,2.91,2.91,0,0,1,0,2.26q-.12.28-.24.6A5.69,5.69,0,0,1,99,80l-1.13,1c-2.31,2.16-3.59,3.35-8.84,4.41-.54.12-1.48.44-1.49,1.16,0,.92,1.4,2.59,4.6,3.42a2.36,2.36,0,0,1,.39.14l4.11,1a2.86,2.86,0,0,1,1.83,1.31,2.9,2.9,0,0,1,.37,2.22c-.34,1.47-2.27,2.24-3.2,2.24a1.19,1.19,0,0,1-.39-.05c-9.73-3.2-14.1-6.44-18.06-9.6,1.06,3,1.27,7.37,1.52,12.74.07,1.43.15,2.94.24,4.51,3.62,9,4.53,13,6.63,22.87l.08.39-.32.24c-.88.66-1.21,2.08-1.6,3.71a14.64,14.64,0,0,1-2,5.26C79.94,139.52,76.05,140.81,70.16,140.81Z"/><path class="cls-1" d="M37.22,219.51c-2.24,0-3.86-1-3.86-2.33V155.92a.93.93,0,0,1,.94-.93h8.11a.94.94,0,0,1,1,.93v61.26c0,1.35-1.63,2.33-3.86,2.33Z"/><path class="cls-1" d="M51.15,144.08c8.94-2.27,7.08-3.83,7.08-3.83s-2.38-5.72-3.52-8.19a37.47,37.47,0,0,0-2.41-4.78c-9.12,0-16.75-4.65-20.18-11.37-3.21-6.29-3.34-12.43-.36-17.28,2.72-4.45,7.9-7.63,13.13-6.82A9.06,9.06,0,0,1,50.55,95s-7.47,1.18-10.17,6a10.18,10.18,0,0,0,.4,10c1.52,2.57,5,6.84,10.91,6.84a13.82,13.82,0,0,0,2.36-.22l3.11-.38,1.72,2.4a53.1,53.1,0,0,1,5.21,8.9A49.33,49.33,0,0,1,66,133.3a45.65,45.65,0,0,0,4.85.29,16.15,16.15,0,0,0,4.81-.55c.22-2.48-.11-4.06,1.64-6.9a139.82,139.82,0,0,0-4.69-14.55A4.73,4.73,0,0,1,69.29,113a5,5,0,0,1-3.5-1.63A8,8,0,0,1,64,105.65a8.21,8.21,0,0,1,1.95-5.21c0-.17,0-2.74-.61-3.11L58.08,93l-2-8.36s-5.55-7.35-6.43-6.4C49,79,54,86.42,54,86.42s-11.34.46-15.6-12.16a46.77,46.77,0,0,0-26.61,15.1C4.52,97.55.64,107.8,0,122.05-.46,133.57,5,151.38,9.56,157.24c1.38-3,9.43-5.86,21.16-8.38C38.88,147.11,44.27,145.83,51.15,144.08Z"/><path class="cls-1" d="M68.39,143.26a22,22,0,0,1-5.84-1s.93,3.13-4.61,4.82c-4.44,1.36-9,2.8-16.58,4.56-14.82,3.43-36,6-36,21.14,0,3.9,3.14,9.12,6.71,10.51,2.38-3.28,6.17-5.53,10.52-7.2-1-.67-1.7-1.39-1.48-2.12,1.22-4.05,22.61-7.57,22.61-7.57,15.38-3.63,31.89-8,31.89-23.24A45.09,45.09,0,0,1,68.39,143.26Z"/><path class="cls-1" d="M67.6,162.22a49.82,49.82,0,0,1-11.37,5c1.21,0,1.86.61,1.86,2,0,2.06-6.64,3.93-11.59,5.11-5.45,1.3-18.17,4.45-18.17,4.45-4.11,1.35-13.22,3.31-13.22,12.53,0,9.95,11.44,12.29,13.22,12.76V191.34l18.17-4.79c11.1-2.39,24.77-6.36,24.77-15.79C71.27,166.39,69.6,163.72,67.6,162.22Z"/><path class="cls-1" d="M58.29,187.35a42.49,42.49,0,0,1-10.43,3.07v18.76C54.07,207.9,60,200.71,60,195.38,60,188.78,58.07,187.31,58.29,187.35Z"/><path class="cls-2" d="M127.88,201.91c-3.85,4.29-6.81,7.7-14.36,7.7-6.06,0-10.5-2.22-13.16-7.11-1.78-3.26-2.52-7.84-2.52-16.12V157.82c0-10.8.45-15.1,2.37-18.2,2.51-4,6.21-6.8,13.46-6.8a16.18,16.18,0,0,1,13.91,7.69h.3V103.37H143V208.72H127.88ZM112.93,184.3c0,6.07,2.22,10.21,7.4,10.21,4.59,0,7.55-3.84,7.55-9.32V156.05c0-4.74-3.26-8.15-7.55-8.15-5.77,0-7.4,4.15-7.4,8.89Z"/><path class="cls-2" d="M163.52,176.91v10.2c0,4.74,2.81,7.4,7.39,7.4,5.78,0,7.11-4.29,7.4-7.54H193.4a23,23,0,0,1-6.06,16,22,22,0,0,1-16.43,6.67c-9.17,0-16.12-4.3-19.68-10.8-2.07-3.86-2.81-9.18-2.81-15.24V158.85c0-6.06.74-11.39,2.81-15.23,3.56-6.52,10.51-10.8,19.68-10.8,13.91,0,22.49,10.2,22.49,23.37v20.72Zm0-11.84h14.79v-8.58c0-5.63-2.81-8.59-7.4-8.59s-7.39,3-7.39,8.59Z"/><path class="cls-2" d="M213.87,176.91v10.2c0,4.74,2.81,7.4,7.4,7.4,5.77,0,7.1-4.29,7.4-7.54h15.09a23,23,0,0,1-6.07,16,22,22,0,0,1-16.42,6.67c-9.18,0-16.13-4.3-19.68-10.8-2.07-3.86-2.81-9.18-2.81-15.24V158.85c0-6.06.74-11.39,2.81-15.23,3.55-6.52,10.5-10.8,19.68-10.8,13.91,0,22.49,10.2,22.49,23.37v20.72Zm0-11.84h14.8v-8.58c0-5.63-2.82-8.59-7.4-8.59s-7.4,3-7.4,8.59Z"/><path class="cls-2" d="M249.15,133.63h15.09v8c6.22-5.47,10.62-7.94,19.35-7.94v11.9c-6.65,0-19.35,6.25-19.35,18.53v44.54H249.15Z"/><path class="cls-2" d="M287.88,145.54h-7.4V133.7h7.4V123.49c0-14.5,9.61-20.12,19.38-20.12h6.95v14.21h-6.8c-2.81,0-4.44,1.92-4.44,5.17V133.7h10.47v11.84H303v63.18H287.88Zm30.77-42.17h15.09v15.09H318.65Zm0,30.33h15.09v75H318.65Z"/><path class="cls-2" d="M353.74,176.91v10.2c0,4.74,2.81,7.4,7.4,7.4,5.77,0,7.1-4.29,7.39-7.54h15.1a23,23,0,0,1-6.07,16,22,22,0,0,1-16.42,6.67c-9.18,0-16.12-4.3-19.68-10.8-2.07-3.86-2.81-9.18-2.81-15.24V158.85c0-6.06.74-11.39,2.81-15.23,3.56-6.52,10.5-10.8,19.68-10.8,13.91,0,22.49,10.2,22.49,23.37v20.72Zm0-11.84h14.79v-8.58c0-5.63-2.81-8.59-7.39-8.59s-7.4,3-7.4,8.59Z"/><path class="cls-2" d="M389,103.37h15.09v87.21c0,5.63,2.25,6.88,8.71,7.11l15.29.19,5.57,11.74H411.52c-13.91,0-22.49-3.56-22.49-21Z"/><path class="cls-2" d="M446,201.91c-3.84,4.29-6.8,7.7-14.34,7.7-6.08,0-10.51-2.22-13.18-7.11-1.77-3.26-2.51-7.84-2.51-16.12V157.82c0-10.8.44-15.1,2.36-18.2,2.52-4,6.22-6.8,13.47-6.8a16.18,16.18,0,0,1,13.91,7.69H446V103.37h15.1V208.72H446ZM431.05,184.3c0,6.07,2.22,10.21,7.4,10.21,4.58,0,7.54-3.84,7.54-9.32V156.05c0-4.74-3.25-8.15-7.54-8.15-5.77,0-7.4,4.15-7.4,8.89Z"/><rect class="cls-1" x="495.33" y="103.61" width="4.92" height="106.01"/><path class="cls-2" d="M564.12,138.64H543.36L538.2,150h-6.06l21.6-47.16L575.34,150h-6.06Zm-2.34-5.16-8-18.3-8,18.3Z"/><path class="cls-2" d="M603.24,127.18h17.94V129a21.8,21.8,0,0,1-6,15.69,20.4,20.4,0,0,1-15.42,6.27,21.59,21.59,0,0,1-16.14-7,23.69,23.69,0,0,1,.15-33.21,22.46,22.46,0,0,1,16.59-7,23.67,23.67,0,0,1,10.23,2.31,22.74,22.74,0,0,1,8.19,6.45l-4,3.78a18.06,18.06,0,0,0-6.3-5.37,16.88,16.88,0,0,0-7.92-2,17.23,17.23,0,0,0-12.81,5.37,17.9,17.9,0,0,0-5.25,13,18.41,18.41,0,0,0,5.19,12.87,16.31,16.31,0,0,0,12.39,5.61,15,15,0,0,0,10-4,12.75,12.75,0,0,0,4.8-9.42h-11.7Z"/><path class="cls-2" d="M627.6,150V104.74h24.3v5.16H633.24v12.66h18.12v5.16H633.24v17.1H651.9V150Z"/><path class="cls-2" d="M659.16,150v-47.4l34,35.58V104.74h5.64v47.1l-34-35.58V150Z"/><path class="cls-2" d="M740.58,106.84v6.54a17.33,17.33,0,0,0-11.94-4.44A16.88,16.88,0,0,0,716,114.37a18.93,18.93,0,0,0-.06,26,16.69,16.69,0,0,0,12.63,5.43,17.52,17.52,0,0,0,12.06-4.68v6.66a23.81,23.81,0,0,1-28.53-3.6,22.28,22.28,0,0,1-6.93-16.56,22.81,22.81,0,0,1,7-16.92,23.41,23.41,0,0,1,17-6.9A21.33,21.33,0,0,1,740.58,106.84Z"/><path class="cls-2" d="M758.22,130.3l-14.76-25.56h6.48L761,124.06l11.1-19.32h6.48L763.86,130.3V150h-5.64Z"/><path class="cls-2" d="M537.89,186.61a14.39,14.39,0,1,1-4.13,10.09A13.8,13.8,0,0,1,537.89,186.61Zm16.56,3.53a9,9,0,0,0-12.88,0,9.33,9.33,0,0,0,0,13.09,8.89,8.89,0,0,0,12.88,0,9.33,9.33,0,0,0,0-13.09Z"/><path class="cls-2" d="M580.16,160.5v5.19a10.54,10.54,0,0,0-3.42-1.08,2.91,2.91,0,0,0-1.77.54,3.42,3.42,0,0,0-1.08,1.22,6.71,6.71,0,0,0-.54,1.86,14.39,14.39,0,0,0-.23,1.82q0,.66,0,1.8V183.3h7.07v4.79h-7.07V210H568V188.09h-2.34V183.3H568v-13q0-10.49,8.61-10.49A9.71,9.71,0,0,1,580.16,160.5Z"/><path class="cls-2" d="M599.19,210V167h5.25a31.28,31.28,0,0,1,5.93.51,18.3,18.3,0,0,1,4.93,1.74,8.6,8.6,0,0,1,3.59,3.65,12.55,12.55,0,0,1,1.28,5.9,10.28,10.28,0,0,1-1.25,4.82,7.23,7.23,0,0,1-3.37,3.33v.12a9.85,9.85,0,0,1,6.16,3.84,11.25,11.25,0,0,1,2.45,7q0,6-4.33,9a18.23,18.23,0,0,1-10.6,3Zm5.36-38.19V186h1.37a13.06,13.06,0,0,0,6.84-1.48c1.6-1,2.39-2.89,2.39-5.7s-.78-4.65-2.36-5.62a13,13,0,0,0-6.76-1.45Zm0,18.52v14.88h4.11q10.14,0,10.14-7.58a6.59,6.59,0,0,0-1-3.68,6.17,6.17,0,0,0-2.71-2.25,15.8,15.8,0,0,0-3.48-1.05,21.41,21.41,0,0,0-3.76-.32Z"/><path class="cls-2" d="M643.31,191.28,656.88,210h-6.5L637.73,191.8H635.5V210h-5.36V167h6.5q2.46,0,4,.09a22.86,22.86,0,0,1,3.65.54A12.8,12.8,0,0,1,648,169a11,11,0,0,1,4.13,4.33,12.36,12.36,0,0,1,1.51,5.93,12.13,12.13,0,0,1-2.85,8.06A11.18,11.18,0,0,1,643.31,191.28Zm-7.81-19.49v15.56h1.71a26.77,26.77,0,0,0,4.14-.28,14.91,14.91,0,0,0,3.56-1.06,5.74,5.74,0,0,0,2.73-2.42,8,8,0,0,0,1-4.11q0-7.69-11.68-7.69Z"/><path class="cls-2" d="M686.92,199.21H667.19L662.29,210h-5.75l20.52-44.8L697.58,210h-5.76Zm-2.23-4.91-7.63-17.38-7.64,17.38Z"/><path class="cls-2" d="M700.65,210V165l32.26,33.8V167h5.36v44.75L706,178v32Z"/><path class="cls-2" d="M745.45,210V167h8.9q10.42,0,17.27,5.5t6.84,15.76q0,10.55-6.79,16.13T754.18,210Zm5.36-38.08v33.18h1.88a33.52,33.52,0,0,0,7.87-.86,20.52,20.52,0,0,0,6.41-2.73,12.91,12.91,0,0,0,4.51-5.19,17.56,17.56,0,0,0,1.62-7.81,17.74,17.74,0,0,0-1.62-7.87,12.52,12.52,0,0,0-4.54-5.15,20.93,20.93,0,0,0-6.41-2.71,33.14,33.14,0,0,0-7.84-.86Z"/><path class="cls-2" d="M798.09,184.36a10.15,10.15,0,1,1,2.94-7.15A9.77,9.77,0,0,1,798.09,184.36Zm-1.19-13.14a8.51,8.51,0,0,0-11.95,0,8.44,8.44,0,0,0,6,14.43,8.19,8.19,0,0,0,6-2.45,8.45,8.45,0,0,0,0-12Zm-4.23,6.51,2.87,5.23h-1.87l-2.9-5.23h-2.1V183H787V171.62h4.77q3.9,0,3.9,3a2.89,2.89,0,0,1-.87,2.3A3.44,3.44,0,0,1,792.67,177.73Zm-1.18-4.47h-2.82v2.82h1.74l.68,0c.33,0,.58,0,.73,0l.65,0a2.77,2.77,0,0,0,.65-.1c.14-.06.3-.13.47-.22a.8.8,0,0,0,.36-.39,1.35,1.35,0,0,0,.1-.55,1.7,1.7,0,0,0-.19-.85,1,1,0,0,0-.59-.47,4,4,0,0,0-.78-.18A9.17,9.17,0,0,0,791.49,173.26Z"/></g></g></svg>